<?xml version="1.0" ?><svg fill="none" height="24" viewBox="0 0 24 24" width="24" xmlns="http://www.w3.org/2000/svg"><path clip-rule="evenodd" d="M11.9834 1.58777C9.73825 0.465971 7.25374 1.03348 5.66783 2.56697C3.13738 2.9678 1 5.13329 1 8.01928V15.9807C1 18.8667 3.13738 21.0322 5.66784 21.433C7.25375 22.9665 9.73824 23.534 11.9834 22.4122L19.9503 18.4315C22.516 17.1495 23.4535 14.3701 22.7958 12C23.4535 9.62994 22.516 6.85046 19.9503 5.56849L11.9834 1.58777ZM6 8.72176C6 6.70302 8.12674 5.38776 9.93597 6.29176L16.4969 9.56999C18.501 10.5713 18.501 13.4286 16.4969 14.43L9.93596 17.7082C8.12673 18.6122 6 17.297 6 15.2782V8.72176Z" fill="black" fill-rule="evenodd"/><path clip-rule="evenodd" d="M11.2539 8.27568C9.53016 7.41438 7.5 8.66645 7.5 10.595V13.405C7.5 15.3335 9.53016 16.5856 11.2539 15.7243L14.0658 14.3194C15.9781 13.3639 15.9781 10.6361 14.0658 9.68063L11.2539 8.27568Z" fill="black" fill-rule="evenodd"/></svg>
